<?xml version="1.0" encoding="UTF-8"?><svg id="d" xmlns="http://www.w3.org/2000/svg" viewBox="0 0 500 334.17"><defs><style>.h{opacity:.1;}.h,.i,.j,.k,.l,.m,.n{stroke-width:0px;}.i{opacity:.2;}.i,.j,.n{fill:#fff;}.j{opacity:.6;}.k{fill:#2b1b17;}.l{fill:#a5bba0;}.m{fill:#c35214;}</style></defs><ellipse id="e" class="l" cx="250" cy="309.13" rx="232.3" ry="13.57"/><path class="m" d="m139.31,106.89l-1.1-.47c.99-2.34,1.56-4.28,1.74-5.94l1.19.13c-.19,1.77-.79,3.82-1.83,6.27Zm-.47-13.72c-2.32-5.11-6.65-8.33-12.5-9.31l.2-1.18c6.26,1.06,10.89,4.51,13.39,10l-1.09.5Z"/><path class="m" d="m132.57,118.94l-11.79,5.37-.54-1.18c-.91-2.01-1.43-3.74-1.54-5.2-.11-1.46.04-2.91.47-4.35.43-1.44,1.62-4.18,3.58-8.22,1.05-2.13,1.32-3.76.8-4.9-.52-1.14-1.26-1.87-2.22-2.19-.96-.32-2.12-.18-3.49.44-1.47.67-2.46,1.71-2.98,3.12-.52,1.41-.36,3.39.47,5.93l-12.71,3.99c-1.6-4.61-1.62-8.91-.04-12.88,1.57-3.97,5.26-7.28,11.05-9.92,4.51-2.05,8.58-2.77,12.2-2.15,4.92.83,8.35,3.37,10.28,7.6.8,1.76,1.09,3.68.86,5.75-.23,2.08-1.3,4.98-3.23,8.7-1.34,2.61-2.05,4.53-2.14,5.79-.09,1.25.23,2.68.96,4.3Zm-10.76,8.68l12.62-5.75,5.07,11.14-12.62,5.75-5.07-11.14Z"/><path class="m" d="m103.4,145.58l-6,8.14-.81-.6c-1.39-1.02-2.39-2.01-3.03-2.96-.63-.95-1.08-2-1.33-3.15-.26-1.15-.48-3.47-.68-6.97-.09-1.85-.53-3.07-1.31-3.64-.79-.58-1.57-.8-2.34-.65-.78.14-1.51.69-2.21,1.63-.75,1.01-1.03,2.1-.85,3.26.18,1.16,1.04,2.45,2.57,3.86l-7.15,7.55c-2.85-2.54-4.49-5.46-4.93-8.77-.44-3.31.82-6.96,3.76-10.96,2.29-3.11,4.8-5.15,7.5-6.1,3.67-1.31,6.97-.88,9.9,1.28,1.21.89,2.14,2.09,2.77,3.6.63,1.5,1,3.89,1.1,7.16.08,2.28.33,3.87.74,4.76.41.89,1.18,1.74,2.29,2.56Zm-4.04,10.01l6.42-8.72,7.69,5.67-6.42,8.72-7.69-5.67Z"/><path class="m" d="m230.94,304.81c-1.94,0-3.82-1.06-4.78-2.91-4.81-9.3-10.86-20.21-21.75-32.03-1.27-1.38-1.73-3.33-1.21-5.13,4.04-14.03,10.39-33.21,10.45-33.4.93-2.82,3.97-4.34,6.79-3.41,2.82.93,4.35,3.97,3.41,6.79-.06.18-5.52,16.7-9.49,30.14,10.01,11.35,16.18,22.11,21.34,32.1,1.36,2.63.33,5.88-2.3,7.24-.79.41-1.63.6-2.47.6Z"/><polygon class="k" points="239.89 309.13 198.21 309.13 220.3 296.6 238.81 297.32 239.89 309.13"/><ellipse class="k" cx="226.99" cy="230.17" rx="35.99" ry="29.83" transform="translate(-58.33 78.2) rotate(-17.36)"/><path class="k" d="m132.17,210.58c-2.11,0-4.11-1.25-4.97-3.32-1.14-2.74.17-5.89,2.91-7.02,3.12-1.29,3.56-4.48,3.56-4.52.23-2.4,2.02-4.36,4.4-4.79,1.28-.23,2.52-.59,3.95-1.01,7.28-2.13,16.3-4.76,44.7,3.19,28.01-15.67,28.33-45.04,28.33-46.31,0-2.96,2.39-5.37,5.36-5.38h.02c2.95,0,5.35,2.38,5.37,5.33.01,1.56-.16,38.44-35.99,56.91-1.22.63-2.63.77-3.95.39-27.07-7.82-34.69-5.59-40.82-3.8-.54.16-1.09.32-1.65.48-1.33,3.41-4.09,7.35-9.15,9.45-.67.28-1.37.41-2.05.41Z"/><path class="m" d="m194.99,172.13c-10.19-40.53-37.36-145.04,49.68-151.43,78.09-5.73,99.52,98.21,104.73,134.22,3.04,20.99,4.06,40.02,4.23,54.89.23,19.19-13.25,35.73-32.06,39.55-42.55,8.64-82.81,9.87-109.92-.83-7.33-2.89-11.77-10.37-11.06-18.22,1.05-11.64,1.06-31.66-5.61-58.18Z"/><path class="h" d="m349.39,154.91c-4.91-33.93-24.23-128.25-91.85-134.14-7.87-.69-15.63,3.19-19.26,10.2-3.02,5.84-2.92,12.93,1.6,19.93,14.9,23.11,50.45,102.99,45.08,146.51-2.44,19.8-14.86,35.62-4.06,57.88,13.05-1.08,26.73-3.1,40.66-5.94,18.81-3.81,32.29-20.36,32.06-39.55-.18-14.87-1.2-33.91-4.24-54.9Z"/><path class="k" d="m337.75,210.35c-.29,0-.53-.24-.54-.53-.22-18.51-1.64-36.96-4.23-54.82-12.94-89.44-47.77-134.67-100.76-130.77-.29.04-.55-.2-.58-.5-.02-.3.2-.55.5-.58,53.62-3.95,88.87,41.6,101.9,131.69,2.59,17.91,4.02,36.41,4.24,54.97,0,.3-.23.54-.53.54h0Z"/><ellipse class="k" cx="328.02" cy="233.04" rx="35.99" ry="29.83" transform="translate(-54.59 108.47) rotate(-17.36)"/><path class="m" d="m340.21,304.81c-1.94,0-3.82-1.06-4.78-2.91-4.81-9.3-10.86-20.21-21.75-32.03-1.27-1.38-1.73-3.33-1.21-5.13,4.04-14.03,10.39-33.21,10.45-33.4.93-2.82,3.97-4.35,6.79-3.41,2.82.93,4.35,3.97,3.41,6.79-.06.18-5.52,16.7-9.49,30.14,10.01,11.35,16.18,22.11,21.34,32.1,1.36,2.63.33,5.88-2.3,7.24-.79.41-1.63.6-2.47.6Z"/><path class="k" d="m328.92,141c-1.93,0-3.8-1.05-4.76-2.88-1.38-2.62-.37-5.87,2.25-7.25h0c1.04-.55,24.43-13.34,31-44.05-15.6-6.52-43.64-21.25-49.77-28.65-.59-.72-.99-1.58-1.15-2.49-.14-.81-1.15-7.16,1.2-13.18l-2.83-5.47c-1.36-2.64-.33-5.88,2.3-7.24,2.64-1.36,5.88-.33,7.24,2.3l4.07,7.86c.87,1.68.79,3.7-.21,5.3-1.29,2.07-1.44,5.11-1.34,7.08,6.9,6.24,34.79,21.02,48.43,26.08,2.39.89,3.83,3.34,3.44,5.86-6.08,39.26-36.11,55.44-37.39,56.11-.8.42-1.65.62-2.49.62Z"/><path class="k" d="m311.78,57.43c-.5,0-1.01-.14-1.47-.44-1.24-.81-1.59-2.48-.78-3.72.19-.28,4.63-6.98,11.39-8.79,1.43-.39,2.91.47,3.29,1.9s-.47,2.91-1.9,3.29c-4.72,1.26-8.24,6.49-8.28,6.54-.52.79-1.37,1.22-2.25,1.22Z"/><polygon class="k" points="349.16 309.13 307.48 309.13 329.57 296.6 348.09 297.32 349.16 309.13"/><ellipse class="n" cx="259.59" cy="122.93" rx="28.66" ry="25.8" transform="translate(-9.83 23.36) rotate(-5.06)"/><path class="k" d="m260.18,123.28c2.17,7.61.53,14.74-3.65,15.94-4.18,1.19-9.33-4.01-11.5-11.62s-.53-14.74,3.65-15.94,9.33,4.01,11.5,11.62Z"/><path class="k" d="m226.99,127.77c18.09-2.33,53.92-12.54,59.83-16.66-4.66-13.61-26.31-25.26-45.68-18.7-17.46,5.91-14.15,35.36-14.15,35.36Z"/><path class="k" d="m230.51,136.51c22.45-4.27,51.65-11.43,60-16.02-.51,14.65-4.77,29.49-27.7,34.51-18.73,4.1-32.31-18.48-32.31-18.48Z"/><ellipse class="n" cx="199.69" cy="131.96" rx="17.63" ry="22.32" transform="translate(-39.66 132.11) rotate(-33.49)"/><path class="k" d="m200.08,132.34c1.36,6.42.19,11.77-2.63,11.96-2.81.19-6.2-4.87-7.56-11.28-1.36-6.42-.19-11.77,2.63-11.96,2.81-.19,6.2,4.87,7.56,11.28Z"/><path class="k" d="m177.81,129.88c12.14,1.43,36.24-.16,40.25-2.36-2.96-11.62-17.32-24.77-30.36-23.08-11.76,1.52-9.89,25.44-9.89,25.44Z"/><path class="k" d="m180.07,137.45c15.08.69,34.71.3,40.36-1.82-.52,11.51-3.54,22.49-18.94,22.31-12.59-.15-21.41-20.49-21.41-20.49Z"/><path class="k" d="m266.88,85.16c-22.63,0-37.67-11.18-38.41-11.74-2.37-1.79-2.83-5.16-1.03-7.53,1.79-2.36,5.15-2.82,7.52-1.04.26.19,18.13,13.22,42.94,8.52,2.92-.55,5.73,1.36,6.28,4.28.55,2.92-1.36,5.73-4.28,6.28-4.56.86-8.91,1.23-13.01,1.23Z"/><path class="k" d="m170.78,75.9c-.6,0-1.22-.1-1.82-.32-2.79-1-4.24-4.08-3.24-6.87,2.85-7.93,7.57-13.08,14.04-15.3,11.73-4.04,24.35,3.81,24.88,4.15,2.51,1.59,3.26,4.9,1.67,7.41-1.58,2.5-4.89,3.26-7.4,1.68-2.45-1.52-10.03-5.04-15.7-3.07-3.26,1.13-5.68,4-7.39,8.76-.79,2.19-2.85,3.56-5.06,3.56Z"/><path class="k" d="m213.14,166.57c-.15,0-.3-.02-.45-.06-.85-.25-1.34-1.12-1.1-1.97.04-.15,1.05-3.63,5.47-5.9,6.16-3.18,15.56-2.52,27.93,1.96.84.3,1.27,1.23.97,2.07-.3.84-1.23,1.27-2.06.97-14.18-5.14-21.54-4.03-25.22-2.19-3.21,1.6-3.95,3.89-3.98,3.99-.21.7-.86,1.15-1.55,1.15Z"/><path class="m" d="m162.4,160.66c-31.27,2.81-53.66,15.76-53.66,15.76,9.26-1.75,42.36,39.21,50.87,70.8,15.7-5.82,34-9.78,53.53-12.88-11.83-32.56-33.45-69.44-50.74-73.67Z"/><path class="j" d="m162.4,160.66c-31.27,2.81-53.66,15.76-53.66,15.76,9.26-1.75,42.36,39.21,50.87,70.8,15.7-5.82,34-9.78,53.53-12.88-11.83-32.56-33.45-69.44-50.74-73.67Z"/><path class="m" d="m162.4,160.66c-20.46-2.31-53.69,14.82-53.69,14.82-5.89,3.75-4.29,10.8-1.08,13.77,3.08-4.42,37.42-15.93,50.33-17.47-6.42-5.94-.46-10.25,4.44-11.12Z"/><path class="i" d="m162.4,160.66c-20.46-2.31-53.69,14.82-53.69,14.82-5.89,3.75-4.29,10.8-1.08,13.77,3.08-4.42,37.42-15.93,50.33-17.47-6.42-5.94-.46-10.25,4.44-11.12Z"/><path class="k" d="m132.18,210.58c-1.76,0-3.47-.86-4.51-2.44-3.9-5.97-1.46-15.08-.94-16.85.85-2.84,3.84-4.46,6.69-3.61,2.84.85,4.46,3.84,3.61,6.68-.88,3.01-1.06,6.85-.37,7.91,1.62,2.49.92,5.82-1.56,7.44-.91.59-1.92.87-2.93.87Z"/></svg>