<?xml version="1.0" encoding="UTF-8"?><svg id="b" xmlns="http://www.w3.org/2000/svg" viewBox="0 0 601.55 443.06"><defs><style>.j{opacity:.3;}.k{opacity:.5;}.l,.m,.n,.o,.p,.q,.r,.s,.t,.u,.v{stroke-width:0px;}.m{fill:#263238;}.n{fill:#455a64;}.o{fill:#a36957;}.p{fill:#e0e0e0;}.q{fill:#b78876;}.r{fill:#fff;}.s{fill:#e8505b;}.t{fill:#fafafa;}.u{fill:#f5f5f5;}.v{opacity:.2;}</style></defs><g id="c"><rect class="u" x="65.2" y="143.03" width="134.99" height="198.77" transform="translate(-112.37 114.69) rotate(-33.78)"/><polygon class="p" points="186.09 279.66 184.81 287.54 129.03 279.5 130.31 271.62 186.09 279.66"/><polygon class="p" points="158 251.55 166 252.7 157.13 307.62 149.12 306.46 158 251.55"/><path class="p" d="m106.62,181.75c.08.12-11.16,7.78-25.11,17.11-13.95,9.33-25.32,16.8-25.4,16.68-.08-.12,11.16-7.78,25.11-17.11,13.95-9.33,25.32-16.8,25.4-16.68Z"/><path class="p" d="m147.88,171.39c.08.12-18.62,12.77-41.76,28.24-23.15,15.48-41.97,27.93-42.05,27.81-.08-.12,18.61-12.76,41.76-28.25,23.14-15.48,41.97-27.93,42.05-27.81Z"/><path class="p" d="m156.15,183.75c.08.12-18.62,12.77-41.76,28.24-23.15,15.48-41.97,27.93-42.05,27.81-.08-.12,18.61-12.76,41.76-28.25,23.14-15.48,41.97-27.93,42.05-27.81Z"/><path class="p" d="m164.42,196.12c.08.12-18.62,12.77-41.76,28.24-23.15,15.48-41.97,27.93-42.05,27.81-.08-.12,18.61-12.76,41.76-28.25,23.14-15.48,41.97-27.93,42.05-27.81Z"/><path class="p" d="m172.7,208.49c.08.12-18.62,12.77-41.76,28.24-23.15,15.48-41.97,27.93-42.05,27.81-.08-.12,18.61-12.76,41.76-28.25,23.14-15.48,41.97-27.93,42.05-27.81Z"/><rect class="u" x="451.34" y="250.43" width="113.37" height="166.93" transform="translate(-99.88 338.8) rotate(-33.78)"/><polygon class="p" points="552.87 365.18 551.8 371.8 504.95 365.05 506.02 358.43 552.87 365.18"/><polygon class="p" points="529.27 341.57 536 342.54 528.54 388.66 521.82 387.69 529.27 341.57"/><path class="p" d="m486.13,282.95c.08.12-9.35,6.57-21.07,14.4-11.72,7.84-21.28,14.09-21.36,13.97-.08-.12,9.35-6.57,21.07-14.41,11.71-7.83,21.28-14.09,21.36-13.97Z"/><path class="p" d="m520.78,274.25c.08.12-15.61,10.76-35.05,23.76-19.44,13-35.26,23.44-35.34,23.32-.08-.12,15.61-10.75,35.05-23.76,19.43-13,35.26-23.44,35.34-23.32Z"/><path class="p" d="m527.73,284.63c.08.12-15.61,10.76-35.05,23.76-19.44,13-35.26,23.44-35.34,23.32-.08-.12,15.61-10.75,35.05-23.76,19.43-13,35.26-23.44,35.34-23.32Z"/><path class="p" d="m534.67,295.02c.08.12-15.61,10.76-35.05,23.75-19.44,13-35.26,23.44-35.34,23.32-.08-.12,15.61-10.75,35.05-23.76,19.43-13,35.26-23.44,35.34-23.32Z"/><path class="p" d="m541.62,305.41c.08.12-15.61,10.76-35.05,23.76-19.44,13-35.26,23.44-35.34,23.32-.08-.12,15.61-10.75,35.05-23.76,19.43-13,35.26-23.44,35.34-23.32Z"/><rect class="u" x="209.47" y="90.69" width="116.6" height="171.69" transform="translate(114.9 -105.42) rotate(28.14)"/><polygon class="p" points="261.09 232.37 254.57 234.6 238.01 188.83 244.53 186.59 261.09 232.37"/><polygon class="p" points="271.09 199.53 273.47 206.1 228.01 221.67 225.63 215.1 271.09 199.53"/><path class="p" d="m303.39,131.99c-.08.15-10.51-5.27-23.29-12.11-12.79-6.84-23.08-12.5-23-12.65.08-.15,10.51,5.27,23.29,12.11,12.78,6.84,23.08,12.5,23,12.65Z"/><path class="p" d="m328.06,159.23c-.08.15-17.34-8.92-38.54-20.26-21.21-11.34-38.34-20.66-38.26-20.81.08-.15,17.34,8.92,38.55,20.27,21.2,11.34,38.33,20.66,38.25,20.81Z"/><path class="p" d="m322,170.56c-.08.15-17.34-8.92-38.54-20.26-21.21-11.34-38.34-20.66-38.26-20.81.08-.15,17.34,8.92,38.55,20.27,21.2,11.34,38.33,20.66,38.25,20.81Z"/><path class="p" d="m315.94,181.89c-.08.15-17.34-8.92-38.54-20.26-21.21-11.34-38.34-20.66-38.26-20.81.08-.15,17.34,8.92,38.55,20.27,21.2,11.34,38.33,20.66,38.25,20.81Z"/><path class="p" d="m309.88,193.22c-.08.15-17.34-8.92-38.54-20.26-21.21-11.34-38.34-20.66-38.26-20.81.08-.15,17.34,8.92,38.55,20.27,21.2,11.34,38.33,20.66,38.25,20.81Z"/><rect class="v" x="307.84" width="2.58" height="43.98"/></g><g id="d"><path class="s" d="m248.9,97.19h120.46s-11.12-53.23-61.14-53.23c-44.49,0-59.32,53.23-59.32,53.23Z"/><rect class="s" x="307.84" width="2.58" height="43.98"/></g><g id="e"><path class="m" d="m577.33,439.83c0,.14-129.25.26-288.65.26s-288.68-.12-288.68-.26,129.22-.26,288.68-.26,288.65.12,288.65.26Z"/></g><g id="f"><path class="s" d="m31.95,377.2c3.38.12,6.55,1.95,8.78,4.5,2.23,2.54,3.6,5.74,4.47,9.01,1.69,6.32.65,13.79-1.15,20.08-6.85-2.45-11.07-9.75-12.98-13.59-3.02-6.07-4.79-18.86.87-20"/><path class="s" d="m53.91,418.45c-2.16-3.1-2.21-7.41-.5-10.79,1.71-3.37,4.99-5.8,8.6-6.91,1.67-.51,3.61-.73,5.06.24,1.36.91,1.95,2.69,1.77,4.31-.18,1.62-1,3.11-1.97,4.42-3.33,4.51-7.38,8.26-12.96,8.72"/><path class="m" d="m54.66,439.58s-.14-.46-.31-1.31c-.18-.94-.42-2.15-.7-3.6-.54-3.03-1.4-7.34-.75-12.1.62-4.74,2.51-8.8,4.49-11.22.97-1.22,1.91-2.09,2.6-2.62.33-.28.63-.45.81-.59.19-.13.3-.19.31-.17.07.08-1.6,1.12-3.45,3.59-1.87,2.43-3.67,6.41-4.29,11.08-.64,4.67.15,8.94.61,11.98.24,1.53.44,2.77.56,3.63.11.86.16,1.34.12,1.34Z"/><path class="m" d="m34.16,386.83s.11.17.28.52c.18.39.42.9.71,1.52.6,1.33,1.46,3.26,2.49,5.65,2.06,4.79,4.82,11.45,7.7,18.86,2.88,7.42,5.33,14.2,7.03,19.12.85,2.46,1.53,4.46,1.98,5.85.21.66.38,1.19.51,1.6.11.37.16.56.15.57s-.1-.18-.24-.54c-.15-.41-.35-.93-.59-1.57-.52-1.42-1.24-3.39-2.12-5.8-1.79-4.9-4.29-11.65-7.16-19.07-2.88-7.41-5.58-14.08-7.56-18.9-.97-2.37-1.77-4.31-2.35-5.71-.26-.64-.46-1.16-.62-1.56-.14-.36-.2-.55-.19-.56Z"/><path class="s" d="m46.54,425.6c-4.04-6.87-11.57-11.55-19.52-12.13-2.02-.15-4.46.19-5.36,2.01-.9,1.82.3,3.97,1.68,5.47,5.74,6.21,15.44,8.38,23.27,5.2"/><path class="m" d="m30.1,418.89s.45-.01,1.27.05c.41.03.91.06,1.48.17.57.11,1.23.17,1.94.36.71.17,1.5.35,2.31.64.83.24,1.68.6,2.57.98,1.76.8,3.64,1.85,5.42,3.21,1.77,1.38,3.26,2.92,4.48,4.43.58.77,1.14,1.51,1.58,2.26.48.72.84,1.44,1.17,2.09.36.64.57,1.27.81,1.8.24.53.38,1.01.5,1.4.24.78.36,1.21.33,1.22-.1.04-.59-1.71-1.94-4.27-.35-.63-.72-1.33-1.21-2.03-.44-.73-1-1.44-1.59-2.19-1.21-1.47-2.69-2.97-4.43-4.33-1.75-1.34-3.58-2.38-5.31-3.19-.87-.38-1.71-.75-2.52-1-.79-.3-1.56-.49-2.26-.69-2.81-.71-4.62-.81-4.61-.91Z"/></g><g id="g"><path class="m" d="m484.03,105.48c-2.94.68-4.37,4.06-4.65,7.06-.28,3,.1,6.18-1.16,8.92-1.42,3.09-4.81,5.36-4.93,8.75-.07,2.07,1.16,4.02,1.1,6.09-.1,3.4-3.56,5.97-3.74,9.36-.13,2.45,1.5,4.79,1.11,7.21-.3,1.88-1.77,3.36-2.39,5.17-1.23,3.59,1.23,7.55,4.45,9.57,3.58,2.25,8.17,2.84,12.2,1.55,4.03-1.29,7.43-4.42,9.04-8.34,1.78-4.32,1.39-9.18,1-13.84-1.2-14.51-2.1-29.04-2.69-43.58"/><path class="n" d="m475.49,156.66c-.06-.06.8-.31,1.34-1.6.26-.63.4-1.47.34-2.44-.03-.98-.37-2.04-.73-3.24-.33-1.19-.77-2.57-.52-4.1.25-1.56,1.37-2.84,2.38-4.09.51-.64,1.03-1.3,1.35-2.05.34-.74.41-1.6.16-2.4-.52-1.63-2.12-2.84-2.85-4.72-.36-.95-.37-1.98-.16-2.92.2-.94.58-1.8.97-2.62.78-1.63,1.65-3.12,1.99-4.71.7-3.17.37-6.2.85-8.69.43-2.49,1.49-4.37,2.53-5.33.51-.5,1-.76,1.32-.94.34-.15.52-.21.53-.2.03.06-.74.29-1.71,1.28-.96.97-1.93,2.81-2.31,5.25-.2,1.21-.23,2.58-.28,4.04-.05,1.46-.1,3.05-.47,4.69-.35,1.66-1.23,3.22-1.99,4.81-.75,1.57-1.44,3.41-.78,5.13.64,1.7,2.25,2.91,2.85,4.75.3.92.2,1.93-.19,2.75-.37.83-.91,1.52-1.43,2.16-1.05,1.26-2.09,2.47-2.33,3.87-.25,1.39.14,2.74.45,3.92.33,1.19.66,2.31.67,3.33.03,1.01-.14,1.89-.45,2.53-.3.65-.72,1.06-1.02,1.26-.31.21-.5.26-.5.26Z"/><path class="q" d="m467.62,180.37l-9.03,26.02-37.64,2.02-6.28,13.97,39.3,3.98c7.84,3.24,16.79-.73,19.65-8.71l10.49-29.28-16.49-7.99Z"/><path class="q" d="m545.48,425.7s-27.59-87.62-28.17-90.46c-.53-2.57,10.01-65.62,11.34-81.94l-37.27,1.39s0,.1,0,.27l-15.84.88,14.19,179.19h17.15l-1.7-59.45c10.58,28.4,25.73,57.33,25.73,57.33l14.58-7.21Z"/><path class="o" d="m505.87,396.88c.02-.54-.21-19.92-.21-19.92-.21,1.16-6.58-16.82-6.42-17.92.08-.57,6.63,37.84,6.63,37.84Z"/><path class="o" d="m498.51,350.53s-.08.39-.11,1.09c-.04.7-.05,1.72.02,2.97.02.63.09,1.31.17,2.05.09.73.19,1.52.36,2.33.31,1.64.79,3.41,1.4,5.22,1.25,3.62,2.62,6.79,3.6,9.1.46,1.05.86,1.95,1.19,2.71.29.64.47.98.51.96.04-.01-.07-.39-.3-1.05-.23-.66-.58-1.61-1.03-2.78-.88-2.34-2.19-5.53-3.43-9.13-.61-1.8-1.09-3.54-1.43-5.14-.18-.8-.3-1.57-.41-2.29-.1-.72-.19-1.4-.24-2.02-.12-1.24-.17-2.25-.2-2.94-.03-.7-.07-1.08-.11-1.08Z"/><path class="n" d="m489.39,435.91v-1.61s17.56-.77,17.56-.77l.05,6.64-1.08.07c-4.82.28-24.54,1.1-27.77.13-3.6-1.08,11.24-4.47,11.24-4.47Z"/><path class="m" d="m507.25,439.78s-.1.02-.3.03c-.26.02-.54.03-.86.06-.86.04-1.92.09-3.18.15-2.68.11-6.39.2-10.49.22-4.1.02-7.81-.05-10.49-.13-1.25-.05-2.31-.09-3.18-.12-.32-.02-.6-.03-.86-.05-.2-.01-.3-.02-.3-.03,0,0,.1-.01.3-.01.26,0,.54,0,.86,0,.86.01,1.93.03,3.18.05,2.68.04,6.39.09,10.49.07,4.09-.02,7.8-.09,10.49-.16,1.25-.03,2.31-.06,3.18-.08.32,0,.6-.01.86-.02.2,0,.3,0,.3,0Z"/><path class="m" d="m483.7,440.34c-.06,0-.12-.75-.6-1.51-.47-.77-1.12-1.16-1.09-1.21.01-.05.76.27,1.27,1.1.51.82.47,1.64.42,1.63Z"/><path class="m" d="m488.85,437.71s-.3-.27-.55-.67c-.26-.4-.42-.75-.38-.78.05-.03.3.27.55.67.26.4.42.75.38.78Z"/><path class="m" d="m490.26,436.95s-.32-.14-.62-.41c-.3-.27-.52-.52-.48-.57.04-.04.32.14.62.41.3.27.52.52.48.57Z"/><path class="m" d="m491.15,435.3c0,.06-.41.11-.91.12-.5,0-.91-.03-.91-.09,0-.06.41-.11.91-.12.5,0,.91.03.91.09Z"/><path class="m" d="m491.46,434.14c.02.05-.42.25-1.02.3-.59.05-1.06-.08-1.05-.14,0-.06.47-.03,1.03-.07.56-.04,1.01-.15,1.03-.09Z"/><path class="m" d="m488.25,436.18s-.43.08-1.12,0c-.35-.04-.76-.12-1.2-.26-.22-.08-.45-.13-.69-.28-.11-.07-.24-.18-.28-.35-.05-.17.04-.36.17-.45,1.07-.56,2.15.04,2.55.59.22.28.32.56.37.75.05.19.04.3.03.3-.04.01-.08-.44-.52-.96-.22-.25-.54-.5-.96-.62-.4-.12-.96-.15-1.34.1-.18.13-.11.34.09.46.19.12.42.19.63.27.43.14.82.24,1.16.3.67.12,1.1.12,1.1.15Z"/><path class="m" d="m487.96,436.24s-.18-.27-.13-.78c.03-.25.12-.54.3-.82.2-.25.45-.59.93-.58.26.03.39.33.35.52-.02.2-.11.37-.19.5-.17.28-.35.51-.53.68-.35.35-.63.48-.64.46-.02-.03.22-.2.53-.56.15-.18.32-.4.47-.68.15-.24.26-.66-.02-.71-.28-.03-.57.25-.74.48-.18.24-.27.51-.32.73-.08.46.02.75-.02.76Z"/><path class="m" d="m506.88,434.99s-.5-.05-1.29.05c-.78.09-1.87.41-2.81,1.17-.94.76-1.5,1.75-1.75,2.49-.26.75-.29,1.25-.33,1.25-.01,0-.02-.13,0-.35.02-.23.07-.55.19-.94.23-.78.78-1.82,1.76-2.61.98-.79,2.12-1.1,2.93-1.16.41-.03.74-.01.96.02.22.03.35.07.34.08Z"/><path class="m" d="m498.46,438.38c0,.05-1.13.24-2.55.24-1.42,0-2.56-.16-2.56-.22,0-.06,1.15.01,2.55,0,1.41,0,2.55-.09,2.55-.03Z"/><path class="m" d="m501.89,438.35s-.09.24-.21.5c-.12.26-.18.49-.24.49-.06,0-.09-.28.05-.58.13-.3.36-.46.4-.42Z"/><path class="m" d="m503.17,436.74s-.07.22-.25.41c-.18.18-.36.3-.4.26-.04-.04.07-.22.25-.41.18-.18.36-.3.4-.26Z"/><path class="m" d="m505.02,435.99c-.01.06-.24.06-.5.15-.26.09-.44.23-.49.19-.05-.03.1-.28.42-.39.32-.11.59,0,.57.05Z"/><path class="m" d="m506.33,435.64c.02.05-.08.14-.22.2-.14.06-.28.06-.3,0-.02-.05.08-.14.22-.2.14-.06.28-.06.3,0Z"/><path class="n" d="m530.56,434.36l-.67-1.47,15.71-7.9,2.77,6.04-.96.51c-4.28,2.23-21.94,11.05-25.28,11.49-3.73.49,8.43-8.68,8.43-8.68Z"/><path class="m" d="m548.43,430.57s-.09.06-.26.15c-.23.12-.48.25-.76.4-.77.39-1.72.87-2.84,1.44-2.4,1.2-5.75,2.8-9.48,4.5-3.73,1.69-7.14,3.15-9.63,4.18-1.16.47-2.15.87-2.95,1.19-.3.12-.56.22-.81.31-.19.07-.28.1-.29.09,0,0,.09-.05.27-.13.24-.1.5-.22.79-.35.79-.34,1.77-.76,2.92-1.25,2.47-1.06,5.87-2.54,9.6-4.23,3.73-1.69,7.08-3.28,9.5-4.44,1.13-.54,2.09-1,2.87-1.38.29-.14.55-.26.78-.37.18-.08.28-.12.28-.12Z"/><path class="m" d="m527.18,440.74c-.06.03-.41-.64-1.17-1.14-.74-.51-1.5-.6-1.49-.66-.01-.05.81-.06,1.61.49.81.54,1.1,1.3,1.05,1.31Z"/><path class="m" d="m530.8,436.22s-.38-.12-.78-.38c-.4-.26-.69-.51-.66-.56.03-.05.38.12.78.38.4.26.69.51.66.56Z"/><path class="m" d="m531.78,434.96c-.02.06-.34,0-.73-.12-.39-.12-.68-.27-.67-.32.02-.06.34,0,.73.12.39.12.68.27.67.32Z"/><path class="m" d="m531.91,433.08c.02.05-.33.27-.78.48-.46.21-.85.34-.87.29-.02-.05.33-.27.78-.48.46-.21.85-.34.87-.29Z"/><path class="m" d="m531.71,431.9s-.28.41-.8.69c-.52.29-1,.36-1.01.31-.02-.06.42-.22.91-.49.5-.27.87-.55.91-.5Z"/><path class="m" d="m529.63,435.08s-.36.25-1.03.46c-.33.1-.74.2-1.2.25-.23.02-.46.06-.74.03-.13-.02-.29-.07-.4-.2-.11-.13-.11-.34-.03-.48.75-.95,1.98-.84,2.57-.5.32.17.52.38.64.53.12.16.16.26.15.26-.03.03-.25-.37-.86-.66-.3-.14-.7-.23-1.13-.17-.41.06-.94.26-1.18.64-.11.19.04.36.27.38.22.03.47,0,.69-.01.45-.04.85-.12,1.18-.2.66-.17,1.05-.34,1.07-.31Z"/><path class="m" d="m529.39,435.25s-.28-.18-.44-.66c-.08-.24-.12-.54-.06-.87.08-.31.17-.73.62-.91.25-.08.84.43.88.62.06.19-.3.09-.31.25-.04.32-.11.61-.2.84-.18.46-.38.69-.4.68-.03-.02.12-.28.26-.73.07-.23.13-.5.15-.81.04-.28-.04-.71-.32-.64-.27.09-.41.46-.48.74-.06.29-.04.57.01.8.11.45.33.67.3.7Z"/><path class="m" d="m546.13,426.36s-.48.16-1.16.57c-.68.4-1.54,1.14-2.09,2.22-.55,1.08-.65,2.21-.58,2.99.07.79.25,1.26.21,1.27-.01,0-.07-.11-.15-.32-.08-.21-.16-.53-.22-.94-.11-.8-.04-1.98.54-3.11.57-1.12,1.49-1.88,2.2-2.25.36-.19.67-.31.89-.37.22-.06.34-.08.35-.07Z"/><path class="m" d="m539.84,432.9s-.94.68-2.23,1.27c-1.29.59-2.4.9-2.42.85-.02-.06,1.05-.46,2.33-1.04,1.28-.58,2.29-1.13,2.32-1.07Z"/><path class="m" d="m542.95,431.47c.06.02.01.26.02.55,0,.29.04.52-.02.55-.05.02-.2-.21-.2-.55,0-.33.14-.57.2-.55Z"/><path class="m" d="m543.47,429.47c.05.02.03.23-.06.47-.09.24-.21.42-.26.4-.05-.02-.03-.23.06-.47.09-.24.21-.42.26-.4Z"/><path class="m" d="m544.85,428.04c.01.06-.2.15-.4.34-.2.18-.31.39-.37.37-.06,0-.02-.3.22-.53.25-.23.53-.24.54-.19Z"/><path class="m" d="m545.9,427.18s-.01.16-.12.28c-.11.11-.23.17-.27.13-.04-.04.01-.16.12-.28.11-.11.23-.17.27-.13Z"/><path class="s" d="m526.23,223.64l-2.93-35.7,15.03.27s.7-5.26-1.52-16.81c-1.36-7.08-6.07-11.42-11.36-14v-.09s-.46-.12-.46-.12c-6.73-3.15-13.77-3.59-13.77-3.59l-18.45.21s-14.09-1.76-21.89,8.29c-3,3.87-12.3,30.36-12.3,30.36l22.14,10.66-2.11-14.69s.42,10.65,1.78,14.02c.76,1.88,2.95,7.72,2.95,7.72l-.29,17.61,43.16-4.14Z"/><polygon class="s" points="516.05 182.76 513.32 194.42 539.15 194.42 537.45 174.86 516.05 182.76"/><path class="m" d="m539.15,194.42c0-.08-1.3-.21-3.42-.34-2.12-.12-5.05-.23-8.28-.21-3.24.02-6.17.16-8.28.32-2.12.17-3.42.35-3.41.42,0,.08,1.32.05,3.43-.02,2.12-.06,5.04-.14,8.26-.16,3.23-.01,6.15.03,8.27.05,2.12.02,3.43.02,3.43-.06Z"/><path class="m" d="m514.94,174.77c-.08,0-.11,1.14-.09,2.97.02,1.83.09,4.36.19,7.15.11,2.79.24,5.32.36,7.14.12,1.83.24,2.95.32,2.95.08,0,.11-1.14.09-2.97-.02-1.83-.09-4.36-.19-7.15-.11-2.79-.24-5.31-.36-7.14-.12-1.83-.24-2.95-.32-2.95Z"/><g class="j"><path class="l" d="m491.43,184.87s5.74,42.57,21.88,41.44c0,0,7.27-.09,9.6-4.92v-1.9l-31.48-34.62Z"/></g><g class="j"><polygon class="l" points="514.94 177.28 511.85 198.15 513.85 201.81 517.14 194.65 515.75 194.61 514.94 177.28"/></g><path class="m" d="m483.35,210.16s-.19-.34-.44-1c-.25-.65-.58-1.61-.97-2.79-.77-2.38-1.72-5.7-2.47-9.45-.74-3.75-1.11-7.19-1.22-9.69-.06-1.25-.08-2.26-.06-2.96.01-.7.04-1.09.07-1.09.08,0,.14,1.54.35,4.02.21,2.48.63,5.89,1.37,9.61.74,3.72,1.63,7.04,2.31,9.44.32,1.11.59,2.06.81,2.84.19.67.28,1.05.24,1.06Z"/><path class="m" d="m489.88,222.39c-.14.04-.54-.88-.89-2.05-.36-1.17-.53-2.16-.39-2.2.14-.04.54.88.89,2.05.36,1.17.53,2.16.39,2.2Z"/><path class="m" d="m492.11,222.23c-.13.03-.57-1.34-.59-3.11-.03-1.77.36-3.16.5-3.13.15.03,0,1.41.02,3.12.02,1.71.22,3.09.07,3.12Z"/><path class="m" d="m481.18,203.6c-.06.13-5.22-2.32-11.51-5.46-6.29-3.14-11.34-5.8-11.28-5.93.06-.13,5.22,2.32,11.51,5.46,6.29,3.14,11.34,5.8,11.28,5.93Z"/><path class="q" d="m490.26,157.25c.12-5.06.14-10.39.14-10.39,0,0-6.49-1.25-7.62-9.79-1.08-8.14,1.94-27.25,1.94-27.25h0c9.48-3.58,19.33-.34,25.82,7.34h0l-1.61,41.07c-.19,4.77-4.44,8.41-9.54,8.17h0c-5.15-.24-9.24-4.34-9.13-9.16Z"/><path class="m" d="m484.23,125.1c-.04.58.42,1.08,1.02,1.13.6.05,1.11-.38,1.15-.95.04-.58-.42-1.08-1.02-1.13-.6-.05-1.12.38-1.15.95Z"/><path class="m" d="m483.83,123.67c.13.15.97-.44,2.15-.41,1.17.02,2.02.64,2.15.5.06-.06-.07-.32-.43-.6-.36-.28-.98-.56-1.72-.58-.73-.01-1.35.24-1.71.5-.37.27-.5.52-.43.59Z"/><path class="m" d="m496.14,125.84c-.04.58.42,1.08,1.02,1.13.6.05,1.11-.38,1.15-.95s-.42-1.08-1.02-1.13c-.6-.05-1.12.38-1.15.95Z"/><path class="m" d="m496.06,124.41c.13.15.97-.44,2.15-.41,1.17.02,2.02.64,2.15.5.06-.06-.07-.32-.44-.61-.36-.28-.98-.56-1.72-.58-.73-.01-1.35.24-1.71.5-.37.27-.5.52-.43.59Z"/><path class="m" d="m491.57,133c0-.07-.72-.21-1.9-.39-.3-.04-.58-.11-.63-.31-.06-.22.07-.54.22-.88.3-.72.61-1.47.94-2.26,1.31-3.22,2.27-5.86,2.14-5.92-.13-.05-1.3,2.51-2.62,5.73-.32.79-.62,1.55-.91,2.27-.12.34-.33.72-.19,1.17.07.23.29.39.48.45.19.06.36.07.51.08,1.19.09,1.93.12,1.93.05Z"/><path class="o" d="m490.41,146.87s5.71.52,11.47-2.74c0,0-2.91,5.77-11.4,4.75l-.06-2.01Z"/><path class="m" d="m499.81,121.02c-.24.37-1.13.2-2.13.02-1-.2-1.89-.38-1.97-.81-.1-.41.93-.98,2.27-.73,1.33.25,2.08,1.16,1.84,1.51Z"/><path class="m" d="m488.15,119.3c-.09.43-1.05.58-2.15.64-1.1.04-2.07-.02-2.2-.44-.13-.4.8-1.06,2.13-1.12,1.33-.06,2.31.51,2.22.92Z"/><path class="o" d="m491.59,135.81c-.25-.07-.53.07-.65.3-.15.27-.08.63.15.83.23.2.61.2.85.01.24-.19.32-.56.18-.83-.14-.27-.48-.42-.78-.33"/><path class="m" d="m491.87,135.93c.05-.05-.19-.34-.7-.22-.24.05-.55.26-.64.63-.09.34,0,.78.35,1.06.38.26.83.21,1.12,0,.32-.21.41-.59.36-.83-.1-.53-.49-.61-.5-.54-.04.07.14.25.1.56-.02.15-.09.3-.24.37-.14.08-.38.08-.51-.02-.14-.1-.21-.32-.18-.48.02-.17.13-.29.27-.37.28-.16.52-.08.56-.15Z"/><path class="m" d="m506.62,127.21c-1.01,2.34-3.48,4.15-3.14,6.68.22,1.63,1.27,3.16,1.07,4.79-.26,2.05-2.39,3.48-2.69,5.53-.37,2.51,2.07,4.46,3.05,6.81,1.42,3.41-.4,7.25-.44,10.95-.07,5.66,4.75,10.95,10.39,11.42,2.28.19,4.85-.5,6.04-2.46.98-1.62.78-3.67,1.37-5.47.87-2.68,3.42-4.63,3.96-7.4.98-5.04-5.11-9.2-4.71-14.32.17-2.19,1.52-4.09,2.09-6.21.75-2.77.06-5.89-1.79-8.09-1.5-1.79-3.68-2.96-4.96-4.91-1.45-2.21-1.5-5.02-2.05-7.61-1.33-6.31-6.07-11.79-12.12-14.02-6.05-2.23-13.22-1.14-18.33,2.79,0,0-1.45,6.59,5.31,7.69,6.77,1.1,9.9-.17,10.66,2.54,0,0-.77,3.17,2.03,6.19,2.8,3.03,5.43,2.39,4.25,5.11Z"/><path class="n" d="m517.41,172.92s-.21,0-.62-.06c-.4-.06-.99-.2-1.72-.46-1.44-.53-3.49-1.68-5.23-3.88-.87-1.09-1.68-2.41-2.23-3.96-.56-1.54-.88-3.29-.91-5.13-.04-1.84.22-3.78.72-5.71.25-.97.58-1.93.96-2.89.37-.96.83-1.89,1.1-2.87.28-.98.25-1.98,0-2.93-.26-.95-.71-1.85-1.14-2.74-.44-.89-.88-1.77-1.17-2.71-.29-.93-.4-1.94-.21-2.87.4-1.88,1.54-3.28,2.22-4.71.71-1.42.94-2.91.91-4.26-.12-2.72-1.28-4.74-2.23-5.9-.99-1.16-1.74-1.61-1.7-1.65,0,0,.79.37,1.85,1.52,1.02,1.15,2.27,3.19,2.44,6.01.06,1.39-.15,2.97-.88,4.46-.69,1.48-1.79,2.89-2.14,4.61-.35,1.74.47,3.53,1.36,5.27.44.89.9,1.81,1.18,2.83.28,1.01.32,2.16.01,3.2-.28,1.05-.75,1.99-1.12,2.93-.37.94-.7,1.89-.95,2.83-.5,1.89-.76,3.78-.73,5.57.01,3.6,1.25,6.76,2.94,8.87,1.66,2.17,3.62,3.34,5.02,3.91,1.42.57,2.28.66,2.26.72Z"/><path class="n" d="m516.42,122.46s-.52.13-1.49.22c-.96.08-2.38.19-4.12-.11-1.69-.31-3.84-1.14-5.2-3.15-.67-1.01-.93-2.23-1.36-3.36-.41-1.14-1.2-2.13-2.28-2.81-2.19-1.39-4.76-1.56-7.01-1.83-2.26-.26-4.39-.74-5.83-1.82-1.45-1.03-2.19-2.37-2.39-3.34-.11-.48-.1-.87-.08-1.13.04-.26.06-.39.08-.39.06,0-.07.55.19,1.46.24.9.99,2.14,2.4,3.09,1.39.98,3.42,1.41,5.67,1.64,2.23.25,4.9.39,7.24,1.87,1.16.72,2.05,1.85,2.47,3.06.45,1.19.69,2.36,1.29,3.28,1.22,1.86,3.24,2.71,4.86,3.05,1.67.34,3.08.29,4.04.27.96-.03,1.5-.06,1.5-.02Z"/><path class="n" d="m513.93,114.32s-.4.15-1.17.17c-.76.02-1.9-.11-3.16-.71-.63-.3-1.27-.72-1.86-1.29-.6-.57-1.09-1.3-1.55-2.07-.9-1.52-1.77-3.4-3.64-4.17-1.83-.79-3.85-.61-5.6-.49-1.77.17-3.43.23-4.78-.04-1.36-.24-2.38-.8-2.95-1.32-.29-.26-.48-.49-.59-.66-.11-.17-.16-.26-.15-.27.04-.03.28.32.87.77.58.45,1.57.93,2.88,1.12,1.32.21,2.9.13,4.68-.07,1.76-.14,3.84-.36,5.85.49,1,.42,1.81,1.17,2.39,1.98.59.81,1.01,1.66,1.46,2.42.44.77.89,1.47,1.44,2.01.54.55,1.13.97,1.72,1.27,1.17.61,2.26.8,3,.84.74.04,1.16-.01,1.17.03Z"/><path class="n" d="m520.4,170.76c-.05-.02.27-.67.64-1.9.37-1.23.73-3.07.67-5.36-.08-2.27-.62-5.02-2.13-7.64-.73-1.31-1.84-2.48-2.75-3.91-.45-.72-.84-1.52-1.01-2.41-.17-.89-.07-1.84.22-2.7.56-1.73,1.57-3.18,1.78-4.77.27-1.59-.54-3.04-1.3-4.34-.39-.66-.77-1.31-1.07-1.99-.3-.68-.49-1.4-.57-2.09-.15-1.39.01-2.67.11-3.81.29-2.28.08-4.16-.47-5.31-.53-1.17-1.23-1.52-1.18-1.57,0,0,.05.01.12.06.07.05.19.11.32.23.27.22.62.6.92,1.19.63,1.17.9,3.13.66,5.43-.08,1.15-.22,2.41-.05,3.73.13,1.33.82,2.58,1.62,3.88.39.66.8,1.35,1.09,2.13.3.77.43,1.66.3,2.52-.24,1.75-1.27,3.23-1.79,4.85-.27.81-.35,1.65-.21,2.45.15.8.5,1.55.93,2.24.86,1.38,1.98,2.57,2.73,3.94,1.53,2.71,2.05,5.54,2.09,7.87.02,2.34-.41,4.21-.84,5.43-.22.61-.41,1.08-.58,1.38-.15.31-.24.46-.25.46Z"/><path class="m" d="m479.66,357.09s-6.73-63.84-7.12-87.43,10.61-46.87,10.61-46.87l43.08-1.82s8.52,23.94,8.67,33.99c.3,19.54-5.19,38.83-4.56,54.33l1.44,47.8"/><path class="t" d="m533.22,278.6s-.24.2-.7.53c-.12.09-.25.18-.39.28-.13.11-.27.26-.42.4-.3.29-.66.62-.96,1.07-1.39,1.7-2.41,4.75-3.37,8.55-.53,1.89-1.07,4-2.18,6.07-.3.5-.57,1.04-.96,1.51-.19.24-.36.5-.56.73l-.66.66c-.9.89-2.04,1.55-3.24,2.08-2.41,1.06-5.13,1.56-7.62,2.81-2.5,1.22-4.38,3.58-5.53,6.3-1.21,2.71-1.95,5.55-2.96,8.21-.99,2.64-2.35,5.2-4.5,6.82-2.13,1.68-4.77,2.06-7.05,2.21-2.32.14-4.47.07-6.39.36-1.92.27-3.62.87-4.82,1.82-1.21.95-1.91,2.14-2.24,3.16-.34,1.03-.28,1.9-.17,2.45.11.56.27.83.23.84,0,0-.19-.25-.34-.82-.15-.56-.25-1.46.08-2.54.31-1.07,1.01-2.31,2.25-3.32,1.24-1.01,2.99-1.66,4.95-1.96,1.96-.32,4.13-.27,6.42-.43,2.26-.16,4.78-.56,6.79-2.16,2.03-1.54,3.34-4.01,4.31-6.62.99-2.63,1.73-5.47,2.96-8.24,1.16-2.77,3.15-5.28,5.77-6.54,2.59-1.28,5.31-1.77,7.66-2.79,1.17-.51,2.26-1.14,3.12-1.97l.64-.63c.2-.22.36-.47.54-.69.38-.45.64-.97.93-1.45,1.1-2,1.65-4.09,2.21-5.97,1.01-3.78,2.09-6.87,3.57-8.57.32-.45.7-.78,1.01-1.06.16-.14.3-.28.44-.39.15-.09.29-.18.41-.26.49-.31.75-.46.76-.45Z"/><path class="t" d="m533.49,249.06s.04.29.06.86c0,.56-.06,1.4-.3,2.44-.5,2.08-2.02,4.94-4.87,7.53-1.41,1.3-3.1,2.55-5.05,3.69-1.93,1.15-4.06,2.24-6.24,3.47-2.17,1.24-4.42,2.63-6.39,4.49-2,1.83-3.49,4.24-4.84,6.8-1.36,2.55-2.56,5.14-4.19,7.39-.81,1.12-1.72,2.15-2.73,3.02-1.02.87-2.13,1.58-3.25,2.17-2.26,1.17-4.56,1.9-6.69,2.57-2.14.66-4.13,1.25-5.88,1.98-1.75.72-3.26,1.54-4.48,2.4-1.22.87-2.15,1.77-2.81,2.59-1.33,1.65-1.61,2.84-1.69,2.81-.02,0,.08-.28.28-.81.23-.51.59-1.27,1.25-2.12.65-.85,1.57-1.8,2.8-2.7,1.23-.9,2.75-1.75,4.51-2.5,1.76-.76,3.76-1.37,5.89-2.05,2.12-.68,4.4-1.42,6.6-2.58,1.1-.58,2.17-1.27,3.15-2.12.97-.85,1.86-1.85,2.64-2.94,1.59-2.2,2.78-4.77,4.15-7.34,1.35-2.56,2.89-5.04,4.95-6.92,2.02-1.9,4.31-3.3,6.5-4.54,2.2-1.23,4.33-2.3,6.26-3.42,1.93-1.1,3.61-2.32,5.02-3.58,2.83-2.51,4.37-5.28,4.92-7.31.54-2.05.36-3.25.44-3.25Z"/><path class="t" d="m472.76,273.04s-.04-.06-.09-.19c-.04-.13-.13-.33-.19-.6-.12-.53-.2-1.38.1-2.4.56-2.04,2.77-4.57,6.33-5.84,1.77-.61,3.79-.98,5.88-1.53,2.07-.56,4.33-1.34,6.02-3.07.84-.86,1.55-1.87,2.13-2.99.57-1.13,1.05-2.34,1.49-3.59.9-2.49,1.65-5.2,3.17-7.67,1.51-2.48,3.97-4.21,6.52-5.07,2.54-.93,5.11-1.35,7.48-1.9,2.39-.52,4.62-1.19,6.51-2.22,1.87-1.06,3.35-2.47,4.4-3.97,2.16-3,2.72-6.07,2.8-8.1.05-2.06-.28-3.19-.21-3.2,0,0,.4,1.1.42,3.2-.02,2.06-.53,5.21-2.7,8.31-1.06,1.55-2.57,3.02-4.49,4.13-1.94,1.07-4.22,1.77-6.61,2.31-2.39.56-4.94.99-7.41,1.91-2.49.86-4.8,2.49-6.26,4.87-1.47,2.37-2.22,5.05-3.13,7.56-.45,1.26-.94,2.49-1.53,3.65-.61,1.15-1.35,2.21-2.24,3.1-1.79,1.82-4.15,2.6-6.25,3.15-2.13.54-4.13.88-5.87,1.46-3.47,1.18-5.67,3.61-6.26,5.55-.32.97-.28,1.79-.19,2.32.11.53.2.8.18.81Z"/><path class="t" d="m529.78,327.02s.04.21.07.63c.02.41,0,1.03-.18,1.81-.35,1.54-1.54,3.65-3.78,5.4-1.1.89-2.43,1.7-3.97,2.35-1.53.65-3.22,1.17-4.98,1.72-1.76.55-3.61,1.13-5.41,1.97-1.81.83-3.48,2.04-4.92,3.59-1.46,1.53-2.72,3.2-4.11,4.67-1.39,1.48-2.97,2.7-4.61,3.61-3.29,1.82-6.7,2.44-9.51,2.47-2.83.03-5.07-.56-6.55-1.09-.74-.26-1.3-.52-1.66-.71-.37-.18-.56-.29-.55-.3,0-.02.21.06.59.21.38.16.94.39,1.68.62,1.48.46,3.7.99,6.47.91,2.76-.08,6.09-.73,9.28-2.52,1.59-.89,3.11-2.08,4.47-3.54,1.37-1.45,2.62-3.12,4.11-4.68,1.46-1.58,3.23-2.85,5.08-3.69,1.85-.86,3.72-1.43,5.49-1.97,1.77-.54,3.45-1.04,4.95-1.66,1.5-.62,2.82-1.4,3.9-2.25,2.21-1.68,3.41-3.68,3.81-5.17.39-1.5.24-2.38.31-2.38Z"/><path class="q" d="m524.87,194.46l-8.33.2c-.55,2.81-1.88,4.73-1.88,4.73-6.97-12.09-12.37-28.29-13.71-34.8.2-.65.43-1.37.72-2.17.33-.93.05-2.69-.11-3.66-.23-1.45-.64-3.4-.76-4.3-.37-2.75-.81-3.18-1.77-2.87-1.31.42.54,7.73-.53,7.88-.57.09-1.28-2.42-1.48-4.47-.2-2.05-1.13-8.37-1.81-8.79-.99-.62-1.86.36-1.61,2.4.25,2.07.57,8.24-.51,8.32-1.07.08-1.97-10.39-1.97-10.39,0,0,.17-2.28-1.09-2.22-2.27.1-.5,11.14-.3,12.18.14.73-1.04.86-1.14.07-.11-.81-.65-10.47-2.96-10.39-1.77.06,1.37,9.1.38,11.19-.99,2.09-1.68-7.11-3.38-6.99-.63.05-1.09.17.06,5.38.62,2.8,2.45,7.95,4.04,12.21,2.68,14.45,14.44,60.68,32.87,52.21,10.31-4.73,14.5-25.72,14.5-25.72h-9.22Z"/><path class="o" d="m489.32,157.2s.08.01.24-.03c.14-.04.42-.22.38-.58-.02-.62-.12-1.52-.26-2.69-.11-1.18-.46-2.59-.46-4.26-.01-.84,0-1.74.06-2.69.03-.48.04-.97.15-1.44.08-.45.38-.97.73-.91h.04s.02,0,.02,0c.36-.02.63.26.75.68.13.41.16.88.13,1.34v.02s0,.01,0,.01c.23,2.56.49,5.36,1.07,8.35.08.37.16.75.28,1.13.06.19.12.38.21.57.05.1.09.19.17.3.07.09.16.24.42.26.42-.03.54-.35.63-.53.09-.21.15-.41.19-.61.09-.41.13-.81.16-1.22.11-1.63.05-3.3-.07-5-.04-.86-.25-1.72-.1-2.5.07-.38.23-.77.49-.93.13-.08.27-.09.43-.05.08.02.16.06.24.1.07.06.05.03.11.15.33.72.51,1.65.69,2.51.18.89.33,1.79.47,2.7.14.91.27,1.84.38,2.76.09.93.22,1.9.46,2.84.12.47.25.94.45,1.41.1.23.21.47.41.71.07.1.31.29.6.22.28-.09.36-.32.41-.45.16-.58.11-1.05.11-1.56-.02-.5-.06-.99-.1-1.48-.07-.84-.15-1.68-.18-2.5-.01-.41-.01-.82.03-1.2.02-.19.06-.38.12-.52.03-.07.07-.12.1-.15.02-.02.03,0,.04-.03l.13-.04c.66-.27.88.65,1.06,1.39.15.78.25,1.58.41,2.37.26,1.58.6,3.14.78,4.64.07.75.13,1.52-.09,2.15-.24.72-.47,1.44-.7,2.15l-.02.06.02.07c1.22,5.38,2.91,10.19,4.47,14.46,1.58,4.27,3.17,7.95,4.56,10.97,1.39,3.02,2.64,5.34,3.51,6.93.44.75.78,1.35,1.04,1.79.24.4.37.61.39.6.01,0-.09-.23-.31-.65-.24-.45-.56-1.06-.96-1.83-.81-1.61-2.01-3.95-3.36-6.98-1.35-3.03-2.89-6.72-4.44-10.99-1.53-4.27-3.19-9.09-4.37-14.41v.13c.22-.7.46-1.4.69-2.12.27-.82.19-1.61.12-2.39-.18-1.56-.51-3.08-.77-4.67-.15-.78-.25-1.59-.41-2.4-.09-.41-.18-.82-.41-1.24-.11-.2-.28-.43-.55-.56-.28-.12-.56-.09-.79-.03l-.17.05c-.08.03-.17.07-.23.13-.13.11-.2.24-.25.36-.11.24-.14.46-.17.68-.05.44-.05.87-.03,1.29.03.85.11,1.69.18,2.53.04.49.08.97.1,1.45.02.47.03.98-.07,1.34-.02.1-.07.09-.02.14h0s0,.06,0,.04h0s0-.04,0-.04c0,0,.03-.04.01-.05,0,0-.03-.02-.06-.06-.11-.13-.22-.33-.31-.54-.18-.42-.31-.87-.42-1.33-.23-.92-.36-1.83-.45-2.77-.11-.94-.24-1.87-.39-2.79-.14-.92-.3-1.83-.48-2.72-.21-.9-.34-1.77-.76-2.67-.03-.09-.2-.29-.31-.35-.11-.07-.24-.12-.37-.16-.27-.07-.6-.04-.85.12-.5.33-.65.85-.74,1.3-.08.47-.07.93-.02,1.37.05.43.09.85.12,1.27.13,1.68.19,3.34.09,4.93-.03.39-.07.79-.14,1.16-.04.19-.09.36-.15.52-.03.08-.07.15-.11.19-.04.08-.07-.02-.06.12.05-.1,0-.05-.04-.13-.04-.05-.08-.14-.12-.21-.07-.16-.13-.34-.19-.51-.11-.35-.2-.72-.28-1.09-.59-2.94-.87-5.75-1.13-8.28v.03c.02-.51-.01-1-.16-1.49-.08-.24-.19-.48-.39-.67-.2-.19-.48-.28-.74-.27h.06c-.4-.07-.7.18-.86.42-.17.25-.25.52-.31.78-.11.52-.11,1.02-.13,1.5-.04.96-.04,1.87-.02,2.71.03,1.71.42,3.12.55,4.28.17,1.16.3,2.06.36,2.67.06.29-.17.47-.29.52-.14.06-.22.07-.22.08Z"/><path class="q" d="m424.2,208.23s-2.77-.13-5.79.66c-5.16,1.36-14.08,6.76-14.45,13.44h6.47s-3.63,7.72-2.56,7c2.76-1.85,8.27-7.45,8.27-7.45l8.06-13.66Z"/><path class="m" d="m512.52,92.04c-.14.01-.73-5.34-1.31-11.96-.58-6.62-.94-11.99-.79-12,.14-.01.73,5.34,1.31,11.96.58,6.62.94,11.99.79,12Z"/><path class="m" d="m540.93,68.41c.12.08-4.26,6.43-9.77,14.18-5.51,7.75-10.08,13.96-10.2,13.88-.12-.08,4.26-6.43,9.77-14.18,5.51-7.75,10.08-13.96,10.19-13.88Z"/><path class="m" d="m552.73,97.19c.03.14-5.08,1.31-11.4,2.61-6.33,1.3-11.48,2.24-11.51,2.1-.03-.14,5.08-1.31,11.4-2.61,6.33-1.3,11.48-2.24,11.51-2.1Z"/></g><g id="h"><path class="s" d="m212.62,234.54l-35.36,181.8-4.63,23.8,236.06-1.16c10.59-.05,19.98-9.46,23.39-23.43l41.86-171.64c2.59-10.61-3.09-21.64-11.13-21.64l-238.92.25c-5.28,0-9.89,4.93-11.27,12.02Z"/><g class="k"><path class="l" d="m212.62,234.54l-35.36,181.8-4.63,23.8,236.06-1.16c10.59-.05,19.98-9.46,23.39-23.43l41.86-171.64c2.59-10.61-3.09-21.64-11.13-21.64l-238.92.25c-5.28,0-9.89,4.93-11.27,12.02Z"/></g><path class="s" d="m386.05,404.03l-24.99-201.41c-1.02-8.25-7.6-14.41-15.36-14.38l-54.81.18c-4.06.01-7.95,1.74-10.83,4.8l-26.02,27.66-152.43.8c-9.31.05-16.47,8.86-15.24,18.77l23.21,186.15c1.03,8.24,7.59,14.39,15.34,14.37l265.65-.52c29.59.61,32.41-8.12,32.41-8.12-33.91,7.51-36.93-28.27-36.93-28.29Z"/><g class="k"><polygon class="r" points="271.51 363.72 262.55 373.34 193.55 311.26 202.51 301.64 271.51 363.72"/><polygon class="r" points="258.79 299.51 268.7 308.42 206.26 375.47 196.36 366.57 258.79 299.51"/></g></g><g id="i"><path class="s" d="m423.99,103.78c-.64-.27-1.1-.9-1.13-1.64l-.4-9.28c-.03-.58.22-1.15.67-1.52.45-.37,1.05-.51,1.62-.38,1.49.35,3.14.03,4.51-.89,1.27-.85,2.12-2.09,2.33-3.42.22-1.32-.19-2.79-1.12-4.02-1-1.32-2.47-2.2-3.94-2.37-3.01-.35-6.26,1.96-7.1,5.04-.27.99-1.29,1.58-2.29,1.31-1.01-.28-1.58-1.3-1.31-2.29,1.31-4.84,6.31-8.32,11.13-7.77,2.5.29,4.87,1.68,6.49,3.83,1.54,2.04,2.21,4.54,1.83,6.87-.38,2.34-1.82,4.5-3.95,5.92-1.54,1.03-3.3,1.59-5.06,1.65l.31,7.16c.04,1.03-.75,1.9-1.78,1.94-.29.01-.56-.04-.81-.15Z"/><path class="s" d="m426.72,107.58c.06.84-.58,1.57-1.42,1.63-.84.06-1.57-.58-1.63-1.42-.06-.84.58-1.57,1.42-1.63s1.57.58,1.63,1.42Z"/><path class="m" d="m391.85,90.69s.04-.21.09-.61c.05-.43.11-1.03.2-1.79.04-.79.25-1.75.48-2.87.13-.56.2-1.18.41-1.81.2-.63.4-1.31.62-2.02.97-2.81,2.46-6.18,4.97-9.53,2.49-3.34,6-6.65,10.5-9.15,2.22-1.32,4.75-2.24,7.41-3.06,2.7-.64,5.56-1.19,8.55-1.12,1.49-.08,3,.14,4.54.27.77.07,1.52.28,2.29.41.77.14,1.55.29,2.3.56,3.09.79,6.09,2.25,8.94,4.05,5.74,3.61,10.57,9.48,13.22,16.6,1.33,3.56,1.96,7.46,1.96,11.41.08,3.95-.69,7.96-2.09,11.74l-.45,1.14-.06.15.06.14c2.51,5.78,4.97,11.44,7.35,16.93l.42-.48c-5.16-1.98-10.17-3.91-14.98-5.75l-.19-.07-.15.14c-4.16,4.03-9.12,6.75-14.14,8.16-5.04,1.42-10.12,1.49-14.73.67-4.63-.82-8.79-2.59-12.27-4.86-3.48-2.27-6.28-5.04-8.43-7.85-2.14-2.84-3.55-5.76-4.61-8.36-.94-2.66-1.51-5.02-1.79-6.98-.12-.98-.22-1.84-.31-2.6-.02-.75-.04-1.38-.05-1.91-.02-.49-.03-.88-.04-1.17-.01-.26-.02-.4-.03-.4,0,0-.02.13-.02.4,0,.29,0,.68-.02,1.17,0,.53,0,1.17,0,1.92.08.76.16,1.64.26,2.62.25,1.97.79,4.36,1.71,7.06,1.04,2.64,2.44,5.6,4.58,8.5,2.16,2.86,4.97,5.69,8.49,8.02,3.51,2.33,7.73,4.15,12.43,5,4.69.85,9.85.8,14.98-.63,5.12-1.43,10.18-4.18,14.43-8.28l-.33.07c4.8,1.85,9.81,3.78,14.97,5.78l.75.29-.33-.77c-2.38-5.49-4.84-11.16-7.34-16.94v.29s.46-1.17.46-1.17c1.44-3.86,2.22-7.97,2.14-12,0-4.03-.65-8.02-2.01-11.66-2.71-7.27-7.66-13.25-13.51-16.91-2.92-1.83-5.97-3.3-9.12-4.1-.77-.26-1.56-.41-2.34-.56-.78-.13-1.55-.34-2.33-.41-1.56-.13-3.09-.34-4.61-.25-3.04-.06-5.94.51-8.68,1.17-2.7.84-5.26,1.79-7.5,3.14-4.55,2.57-8.08,5.94-10.58,9.35-2.51,3.41-3.99,6.84-4.92,9.68-.21.72-.41,1.4-.6,2.05-.2.64-.26,1.27-.38,1.83-.22,1.14-.4,2.1-.42,2.9-.06.77-.1,1.36-.13,1.8-.03.4-.03.61-.02.61Z"/></g></svg>